<?xml version="1.0" encoding="UTF-8" standalone="no"?>
<!-- Created with Inkscape (http://www.inkscape.org/) -->

<svg
   xmlns:dc="http://purl.org/dc/elements/1.1/"
   xmlns:cc="http://creativecommons.org/ns#"
   xmlns:rdf="http://www.w3.org/1999/02/22-rdf-syntax-ns#"
   xmlns:svg="http://www.w3.org/2000/svg"
   xmlns="http://www.w3.org/2000/svg"
   xmlns:sodipodi="http://sodipodi.sourceforge.net/DTD/sodipodi-0.dtd"
   xmlns:inkscape="http://www.inkscape.org/namespaces/inkscape"
   version="1.1"
   id="svg11789"
   xml:space="preserve"
   width="800"
   height="800"
   viewBox="0 0 800 800"
   sodipodi:docname="bottle-color-outline-publicdomainvectors.org.svg"
   inkscape:version="0.92.4 (5da689c313, 2019-01-14)"><metadata
     id="metadata11795"><rdf:RDF><cc:Work
         rdf:about=""><dc:format>image/svg+xml</dc:format><dc:type
           rdf:resource="http://purl.org/dc/dcmitype/StillImage" /><dc:title></dc:title></cc:Work></rdf:RDF></metadata><defs
     id="defs11793"><clipPath
       clipPathUnits="userSpaceOnUse"
       id="clipPath11805"><path
         d="M 0,600 H 600 V 0 H 0 Z"
         id="path11803"
         inkscape:connector-curvature="0" /></clipPath></defs><sodipodi:namedview
     pagecolor="#ffffff"
     bordercolor="#666666"
     borderopacity="1"
     objecttolerance="10"
     gridtolerance="10"
     guidetolerance="10"
     inkscape:pageopacity="0"
     inkscape:pageshadow="2"
     inkscape:window-width="1920"
     inkscape:window-height="1018"
     id="namedview11791"
     showgrid="false"
     inkscape:zoom="1.0013867"
     inkscape:cx="400"
     inkscape:cy="400"
     inkscape:window-x="-8"
     inkscape:window-y="-8"
     inkscape:window-maximized="1"
     inkscape:current-layer="g11797" /><g
     id="g11797"
     inkscape:groupmode="layer"
     inkscape:label="bottle-color-outline-publicdomainvectors.org"
     transform="matrix(1.3333333,0,0,-1.3333333,0,800)"><g
       id="g11799"><g
         id="g11801"
         clip-path="url(#clipPath11805)"><path
           d="m 323.544,579.181 c -17.187,1.572 -26.136,1.472 -43.265,0.121 l 4.566,-27.253 z"
           style="fill:#ff3000;fill-opacity:1;fill-rule:nonzero;stroke:none"
           id="path11807"
           inkscape:connector-curvature="0" /><path
           d="m 325.923,532.069 -0.698,9.547 c 10.587,4.685 2.469,20.585 0.656,25.855 6.349,9.364 -0.568,10.223 -2.077,11.686 -0.088,0.007 -0.173,0.015 -0.26,0.024 l -38.699,-27.132 z"
           style="fill:#ff5f00;fill-opacity:1;fill-rule:nonzero;stroke:none"
           id="path11809"
           inkscape:connector-curvature="0" /><path
           d="m 280.279,579.302 c -1.699,-0.134 -3.474,-0.28 -5.35,-0.438 0,0 -7.956,-6.488 -0.09,-11.173 0.612,-1.085 -0.737,-3.762 -2.262,-7.058 l 12.268,-8.584 z"
           style="fill:#ff0300;fill-opacity:1;fill-rule:nonzero;stroke:none"
           id="path11811"
           inkscape:connector-curvature="0" /><path
           d="m 272.577,560.633 c -2.602,-5.629 -5.712,-13.062 -0.427,-17.456 l 12.695,8.872 z"
           style="fill:#ff0800;fill-opacity:1;fill-rule:nonzero;stroke:none"
           id="path11813"
           inkscape:connector-curvature="0" /><path
           d="m 302.743,483.959 24.634,28.26 -1.454,19.85 -41.078,19.98 z"
           style="fill:#ff6000;fill-opacity:1;fill-rule:nonzero;stroke:none"
           id="path11815"
           inkscape:connector-curvature="0" /><path
           d="m 284.845,552.049 -12.695,-8.872 c 0.797,-0.662 1.785,-1.256 2.994,-1.764 l -3.382,-44.049 30.981,-13.405 z"
           style="fill:#ff3600;fill-opacity:1;fill-rule:nonzero;stroke:none"
           id="path11817"
           inkscape:connector-curvature="0" /><path
           d="m 271.762,497.364 -1.271,-16.549 32.252,3.144 z"
           style="fill:#ff2f00;fill-opacity:1;fill-rule:nonzero;stroke:none"
           id="path11819"
           inkscape:connector-curvature="0" /><path
           d="m 330.522,469.262 -3.145,42.957 -24.634,-28.26 z"
           style="fill:#ff8900;fill-opacity:1;fill-rule:nonzero;stroke:none"
           id="path11821"
           inkscape:connector-curvature="0" /><path
           d="m 267.424,440.857 -1.711,-22.272 c -0.721,-5.501 -2.775,-10.336 -5.442,-14.972 l 45.61,1.37 z"
           style="fill:#ff3e00;fill-opacity:1;fill-rule:nonzero;stroke:none"
           id="path11823"
           inkscape:connector-curvature="0" /><path
           d="m 302.743,483.959 -32.252,-3.144 -3.067,-39.958 38.457,-35.874 z"
           style="fill:#ff5300;fill-opacity:1;fill-rule:nonzero;stroke:none"
           id="path11825"
           inkscape:connector-curvature="0" /><path
           d="m 305.881,404.983 25.752,49.11 -1.111,15.169 -27.779,14.697 z"
           style="fill:#ff8600;fill-opacity:1;fill-rule:nonzero;stroke:none"
           id="path11827"
           inkscape:connector-curvature="0" /><path
           d="m 337.415,408.723 c -1.857,3.754 -3.095,7.455 -3.281,11.224 l -2.501,34.146 -25.752,-49.11 z"
           style="fill:#ffa500;fill-opacity:1;fill-rule:nonzero;stroke:none"
           id="path11829"
           inkscape:connector-curvature="0" /><path
           d="m 352.565,381.363 0.722,2.017 c -5.391,9.408 -11.987,17.492 -15.872,25.343 l -31.534,-3.74 z"
           style="fill:#ffac00;fill-opacity:1;fill-rule:nonzero;stroke:none"
           id="path11831"
           inkscape:connector-curvature="0" /><path
           d="m 253.972,393.953 c -5.56,-8.021 -11.455,-16.44 -13.861,-27.749 l 74.442,9.07 z"
           style="fill:#ff3e00;fill-opacity:1;fill-rule:nonzero;stroke:none"
           id="path11833"
           inkscape:connector-curvature="0" /><path
           d="m 305.881,404.983 -45.61,-1.37 c -1.878,-3.264 -4.062,-6.43 -6.299,-9.66 l 60.581,-18.679 z"
           style="fill:#ff5900;fill-opacity:1;fill-rule:nonzero;stroke:none"
           id="path11835"
           inkscape:connector-curvature="0" /><path
           d="m 305.881,404.983 8.672,-29.709 38.012,6.089 z"
           style="fill:#ff9600;fill-opacity:1;fill-rule:nonzero;stroke:none"
           id="path11837"
           inkscape:connector-curvature="0" /><path
           d="m 354.363,381.451 c -0.35,0.65 -0.713,1.293 -1.076,1.929 l -0.722,-2.017 z"
           style="fill:#ffd729;fill-opacity:1;fill-rule:nonzero;stroke:none"
           id="path11839"
           inkscape:connector-curvature="0" /><path
           d="m 314.553,375.274 -74.442,-9.07 c -0.445,-2.096 -0.774,-4.287 -0.956,-6.597 l 0.07,-9.751 54.846,-37.689 z"
           style="fill:#ff5600;fill-opacity:1;fill-rule:nonzero;stroke:none"
           id="path11841"
           inkscape:connector-curvature="0" /><path
           d="m 239.225,349.856 0.295,-41.065 54.551,3.376 z"
           style="fill:#ff4b00;fill-opacity:1;fill-rule:nonzero;stroke:none"
           id="path11843"
           inkscape:connector-curvature="0" /><path
           d="m 339.279,307.369 22.43,5.206 0.314,42.807 c -0.275,8.911 -2.886,16.671 -6.408,23.677 l -3.05,2.304 z"
           style="fill:#ffd200;fill-opacity:1;fill-rule:nonzero;stroke:none"
           id="path11845"
           inkscape:connector-curvature="0" /><path
           d="m 355.615,379.059 c -0.405,0.807 -0.823,1.605 -1.252,2.392 l -1.798,-0.088 z"
           style="fill:#ffe41e;fill-opacity:1;fill-rule:nonzero;stroke:none"
           id="path11847"
           inkscape:connector-curvature="0" /><path
           d="m 352.565,381.363 -38.012,-6.089 24.726,-67.905 z"
           style="fill:#ffa600;fill-opacity:1;fill-rule:nonzero;stroke:none"
           id="path11849"
           inkscape:connector-curvature="0" /><path
           d="m 314.553,375.274 -20.482,-63.107 45.208,-4.798 z"
           style="fill:#ff8c00;fill-opacity:1;fill-rule:nonzero;stroke:none"
           id="path11851"
           inkscape:connector-curvature="0" /><path
           d="m 361.566,293.303 0.143,19.272 -22.43,-5.206 z"
           style="fill:#ffce00;fill-opacity:1;fill-rule:nonzero;stroke:none"
           id="path11853"
           inkscape:connector-curvature="0" /><path
           d="m 240.347,193.647 0.156,-21.788 2.085,5.974 z"
           style="fill:#ff1d00;fill-opacity:1;fill-rule:nonzero;stroke:none"
           id="path11855"
           inkscape:connector-curvature="0" /><path
           d="m 294.071,312.167 -54.551,-3.376 0.013,-1.886 61.365,-51.018 z"
           style="fill:#ff5900;fill-opacity:1;fill-rule:nonzero;stroke:none"
           id="path11857"
           inkscape:connector-curvature="0" /><path
           d="m 358.84,230.422 2.276,1.628 0.45,61.253 -22.287,14.066 z"
           style="fill:#ffab00;fill-opacity:1;fill-rule:nonzero;stroke:none"
           id="path11859"
           inkscape:connector-curvature="0" /><path
           d="m 239.533,306.905 0.417,-57.936 60.948,6.918 z"
           style="fill:#ff4d00;fill-opacity:1;fill-rule:nonzero;stroke:none"
           id="path11861"
           inkscape:connector-curvature="0" /><path
           d="m 294.071,312.167 6.827,-56.28 38.381,51.482 z"
           style="fill:#ff7600;fill-opacity:1;fill-rule:nonzero;stroke:none"
           id="path11863"
           inkscape:connector-curvature="0" /><path
           d="M 339.279,307.369 300.898,255.887 358.84,230.422 Z"
           style="fill:#ff8500;fill-opacity:1;fill-rule:nonzero;stroke:none"
           id="path11865"
           inkscape:connector-curvature="0" /><path
           d="m 300.898,255.887 -60.948,-6.918 0.397,-55.322 2.241,-15.814 z"
           style="fill:#ff4000;fill-opacity:1;fill-rule:nonzero;stroke:none"
           id="path11867"
           inkscape:connector-curvature="0" /><path
           d="m 300.898,255.887 -58.31,-78.054 58.125,0.737 z"
           style="fill:#ff3f00;fill-opacity:1;fill-rule:nonzero;stroke:none"
           id="path11869"
           inkscape:connector-curvature="0" /><path
           d="m 361.092,228.859 0.024,3.191 -2.276,-1.628 z"
           style="fill:#ff9c00;fill-opacity:1;fill-rule:nonzero;stroke:none"
           id="path11871"
           inkscape:connector-curvature="0" /><path
           d="m 358.84,230.422 -57.942,25.465 -0.185,-77.317 z"
           style="fill:#ff6800;fill-opacity:1;fill-rule:nonzero;stroke:none"
           id="path11873"
           inkscape:connector-curvature="0" /><path
           d="m 360.953,210.056 0.139,18.803 -2.252,1.563 z"
           style="fill:#ff7900;fill-opacity:1;fill-rule:nonzero;stroke:none"
           id="path11875"
           inkscape:connector-curvature="0" /><path
           d="m 300.713,178.57 59.998,-1.391 0.242,32.877 -2.113,20.366 z"
           style="fill:#ff6500;fill-opacity:1;fill-rule:nonzero;stroke:none"
           id="path11877"
           inkscape:connector-curvature="0" /><path
           d="m 358.285,140.189 2.255,13.659 0.171,23.331 -59.998,1.391 z"
           style="fill:#ff5300;fill-opacity:1;fill-rule:nonzero;stroke:none"
           id="path11879"
           inkscape:connector-curvature="0" /><path
           d="m 242.588,177.833 40.78,-30.264 17.345,31.001 z"
           style="fill:#ff2700;fill-opacity:1;fill-rule:nonzero;stroke:none"
           id="path11881"
           inkscape:connector-curvature="0" /><path
           d="m 360.436,139.872 0.104,13.976 -2.255,-13.659 z"
           style="fill:#ff5900;fill-opacity:1;fill-rule:nonzero;stroke:none"
           id="path11883"
           inkscape:connector-curvature="0" /><path
           d="m 242.588,177.833 -2.085,-5.974 0.282,-39.2 42.583,14.91 z"
           style="fill:#ff1400;fill-opacity:1;fill-rule:nonzero;stroke:none"
           id="path11885"
           inkscape:connector-curvature="0" /><path
           d="m 283.368,147.569 74.917,-7.38 -57.572,38.381 z"
           style="fill:#ff3e00;fill-opacity:1;fill-rule:nonzero;stroke:none"
           id="path11887"
           inkscape:connector-curvature="0" /><path
           d="m 329.515,92.669 c 13.693,1.525 23.952,4.189 25.663,7.771 6.655,5.271 5.138,23.181 5.138,23.181 l 0.061,8.322 -2.092,8.246 z"
           style="fill:#ff3d00;fill-opacity:1;fill-rule:nonzero;stroke:none"
           id="path11889"
           inkscape:connector-curvature="0" /><path
           d="m 240.785,132.659 0.118,-16.48 c 0,0 -0.029,-11.388 2.996,-14.903 1.694,-1.784 4.605,-3.313 8.412,-4.601 l 31.057,50.894 z"
           style="fill:#ff0400;fill-opacity:1;fill-rule:nonzero;stroke:none"
           id="path11891"
           inkscape:connector-curvature="0" /><path
           d="m 252.311,96.675 c 10.908,-3.695 29.184,-5.411 47.347,-5.478 l -16.29,56.372 z"
           style="fill:#ff0d00;fill-opacity:1;fill-rule:nonzero;stroke:none"
           id="path11893"
           inkscape:connector-curvature="0" /><path
           d="m 358.285,140.189 -74.917,7.38 16.29,-56.372 c 10.469,-0.038 20.897,0.474 29.857,1.472 z"
           style="fill:#ff3200;fill-opacity:1;fill-rule:nonzero;stroke:none"
           id="path11895"
           inkscape:connector-curvature="0" /><path
           d="m 360.377,131.943 0.059,7.929 -2.151,0.317 z"
           style="fill:#ff4f00;fill-opacity:1;fill-rule:nonzero;stroke:none"
           id="path11897"
           inkscape:connector-curvature="0" /></g></g></g></svg>